<?xml version="1.0" encoding="utf-8"?>
<!-- Generator: Adobe Illustrator 23.0.6, SVG Export Plug-In . SVG Version: 6.00 Build 0)  -->
<svg version="1.1" id="Layer_1" xmlns="http://www.w3.org/2000/svg" xmlns:xlink="http://www.w3.org/1999/xlink" x="0px" y="0px"
	 viewBox="0 0 274.4 28.1" style="enable-background:new 0 0 274.4 28.1;" xml:space="preserve">
<style type="text/css">
	.st0{fill:#F74E72;}
	.st1{fill:#F74F73;}
	.st2{fill:#F75174;}
	.st3{fill:#F74D72;}
	.st4{fill:#F75074;}
	.st5{fill:#F75276;}
	.st6{fill:#F74B70;}
	.st7{fill:#F75376;}
	.st8{fill:#F75175;}
	.st9{fill:#FDF1F4;}
</style>
<title>logo</title>
<path class="st0" d="M208,8.7c3.2-3.5,6.5-3.3,8.8,0.5c1.6-2.3,3.7-3.5,6.6-2.7c1.8,0.4,3.1,1.9,3.3,3.7c0.5,3.7,0.1,7.5,0.2,11.2
	c0,0.5-0.2,0.8-0.7,0.9c-2.8,0.6-3.6,0-3.6-2.9c0-2.2,0-4.4,0-6.6s-0.9-3-2.5-3s-2.6,1.1-2.7,3c-0.1,2.6-0.1,5.3,0,7.9
	c0.1,2.1-1.3,1.4-2.3,1.5c-1.2,0.1-2,0-1.9-1.6c0.1-2.6,0.1-5.1,0-7.7c0-2.1-0.8-3-2.4-3.1s-2.7,1.1-2.8,3.1c-0.1,2.6-0.1,5.2,0,7.9
	c0,1.2-0.4,1.5-1.5,1.5c-3.4-0.1-2.7,0.3-2.8-2.8c0-3.6,0-7.1,0-10.7c0-0.9-0.6-2.3,1.4-2.3C207.8,6.5,207.8,6.3,208,8.7z"/>
<path class="st1" d="M153.4,19.6c-2.4,2.4-4.7,3.1-7.4,2s-3.5-3.3-3.9-6c-0.2-1.5-0.1-3,0.3-4.5c0.6-2.3,1.9-4.1,4.3-4.7
	c2.5-0.8,5.2,0.2,6.5,2.5c0.4-1.2-0.3-2.9,1.9-2.6c2.9,0.3,2.4-0.2,2.4,2.6c0,4.1,0,8.1,0,12.2c0,3.9-1.8,5.9-5.6,6.7
	c-1.9,0.4-3.9,0.3-5.7-0.4c-1.3-0.4-2.3-1.2-3.1-2.3c-0.3-0.5-0.7-1-0.5-1.5s1-0.3,1.5-0.3c1.3-0.2,2.6,0.2,3.5,1.1
	c1.2,1.1,2.8,0.9,4.2,0.1C153.8,23.5,153.3,21.7,153.4,19.6z M153.4,14.2c-0.1-0.7-0.2-1.4-0.4-2.1c-0.5-1.7-2.2-2.7-3.9-2.2
	c-1.1,0.3-1.9,1.1-2.2,2.2c-0.7,1.6-0.6,3.5,0.2,5.1c0.8,1.5,2.6,2.2,4.2,1.4c0.6-0.3,1-0.7,1.3-1.2
	C153.1,16.3,153.4,15.3,153.4,14.2L153.4,14.2z"/>
<path class="st1" d="M69.9,0.7c4.7,0,8.4,2.8,9.2,6.7c0.2,0.9,0.1,1.3-0.9,1.2c-1.7-0.1-3.3,0.4-4.1-2c-0.6-1.9-2.6-2.3-4.6-2.2
	c-1.8,0.1-3.4,1.2-4.1,2.9c-1.3,2.8-1.3,5.9,0,8.7c0.8,1.8,2.6,2.9,4.5,2.8c2,0.1,3.9-1.1,4.6-2.9c0.4-0.9,3.6-1.6,4.4-1
	c0.4,0.3,0.2,0.7,0.1,1c-0.2,1.4-0.9,2.7-1.9,3.8c-2.8,2.8-6.2,3.3-9.9,2.5c-3.3-0.7-6-3.2-6.7-6.6c-0.7-2.4-0.8-5-0.2-7.4
	C61.4,3.4,64.9,0.8,69.9,0.7z"/>
<path class="st2" d="M110.2,19.8c-1.9,2.2-4,3-6.6,2.4c-3.8-1-5.7-5.6-4.4-10.8c0.9-3.7,3.8-5.7,7.3-5c1.4,0.3,2.4,1.1,3.7,2.5
	c0-2.4,0.1-4.3,0-6.3c-0.1-1.7,0.9-1.6,2-1.5s2.5-0.7,2.4,1.5c-0.1,6-0.1,12.1,0,18.1c0,1.3-0.5,1.6-1.6,1.5
	C111.5,22.1,109.7,22.7,110.2,19.8z M110.1,14c0-1-0.2-2.1-0.8-2.9c-0.9-1.4-2.9-1.8-4.3-0.9c-0.3,0.2-0.6,0.5-0.8,0.8
	c-1.2,2.1-1.2,4.7,0,6.8c0.5,0.7,1.2,1.1,2,1.2C108.7,19.1,110.1,17.4,110.1,14L110.1,14z"/>
<path class="st1" d="M166.7,11.5c0-5.7,2.6-9.4,7.4-10.6c5.1-1.2,10.1,1.3,11.6,5.8c0.4,1.4,0.3,2.1-1.4,2c-1.5-0.1-2.5,0-3.3-1.8
	c-1.5-3.4-6.6-3.4-8.5-0.2c-1.8,3-1.8,6.7-0.1,9.6c0.9,1.7,2.8,2.7,4.7,2.4c1.9-0.1,3.5-1.2,4.2-2.9c0.4-0.9,3.8-1.7,4.4-0.9
	c0.4,0.5,0.1,1.1,0,1.6c-1.3,4.4-6.1,6.9-11.2,5.8S166.7,17.4,166.7,11.5z"/>
<path class="st3" d="M234.3,19.9c-0.2,2.1-1.6,2.9-3.7,2.2c-0.7-0.2-0.6-0.7-0.6-1.2c0-6.2,0-12.5,0-18.7c0-1,0.4-1.2,1.4-1.2
	c2.9-0.1,2.9-0.1,2.9,2.7v5.5c0.7-1.3,2-2.3,3.4-2.8c3.2-0.9,6.5,1,7.4,4.1c0.6,2,0.7,4.2,0.3,6.3c-0.4,2.4-1.6,4.4-4,5.2
	S236.7,22.3,234.3,19.9z M241.2,14.1c-0.1-0.7-0.2-1.3-0.4-2c-0.3-1.4-1.6-2.4-3-2.4c-1.4,0-2.7,0.9-3.1,2.3
	c-0.7,1.7-0.6,3.6,0.3,5.3c0.5,1.2,1.8,1.9,3.1,1.7C239.9,18.7,241.2,16.9,241.2,14.1z"/>
<path class="st1" d="M23.6,8.6c1.1-1.3,2.7-2.2,4.4-2.4c3.2-0.4,5.8,1.5,6,4.7c0.2,3.4,0.1,6.7,0.1,10.1c0,1-0.4,1.2-1.2,1.1
	c-0.6-0.1-1.2-0.1-1.9,0c-0.9,0.1-1.2-0.3-1.2-1.2c0-2.6,0-5.1,0-7.7c0-2.4-1-3.5-3-3.5s-3,1.2-3.1,3.4c-0.1,2.5-0.1,5,0,7.5
	c0,1.2-0.4,1.7-1.5,1.4s-2.8,1-2.8-0.9c-0.2-6.4,0-12.7-0.1-19.1c0-0.7,0.2-1,1-1c2.9-0.4,3.2-0.1,3.2,2.7L23.6,8.6z"/>
<path class="st4" d="M257.1,15.4c-1.4,0-2.7,0.1-4.1,0s-1.3,0.7-1.1,1.5c0.6,2.3,4,3.4,5.6,1.6c1.2-1.3,2.5-1.1,3.9-1.1
	c1,0,1,0.4,0.7,1.1c-0.3,0.8-0.7,1.4-1.3,2c-2.1,2.1-6.2,2.7-9.1,1.3c-2.9-1.5-4.5-4.5-4.2-7.7c0.3-5.8,4.5-9,9.8-7.6
	c3.5,1.1,5.7,4.5,5.3,8.1c-0.1,0.8-0.6,0.9-1.2,0.9H257.1z M255,12.7c0.6,0,1.2,0,1.9,0c1.6,0.1,1.7-0.6,1-1.8
	c-0.8-1.5-2.8-2.1-4.3-1.2c-0.4,0.2-0.8,0.6-1.1,1c-0.4,0.5-0.8,1.1-0.5,1.7s1,0.2,1.5,0.3S254.5,12.7,255,12.7z"/>
<path class="st1" d="M96.9,14.3c0,5-3,8.2-7.8,8.2s-7.9-3.3-7.9-8.3s3.2-8.2,7.9-8.1S96.9,9.4,96.9,14.3z M92.5,14.3
	c0-3.1-1.2-4.9-3.4-5s-3.4,1.9-3.4,4.9s1.2,4.8,3.3,4.8S92.5,17.5,92.5,14.3L92.5,14.3z"/>
<path class="st1" d="M129.3,9.1c0.9-1.9,2.9-3.1,5-3c3,0,5.1,1.9,5.2,5.2s0.1,6.5,0.1,9.8c0,0.8-0.3,1-1.1,1.1
	c-3.3,0.2-3.3,0.3-3.3-3c0-2.2,0-4.4,0-6.6c0.2-1.4-0.8-2.6-2.2-2.8c-0.1,0-0.2,0-0.2,0c-1.5-0.3-3,0.8-3.3,2.3c0,0,0,0,0,0
	c-0.4,2.8-0.5,5.6-0.2,8.4c0.1,1.9-1,1.6-2.1,1.6c-1.1,0-2.2,0.5-2.2-1.5c0.1-4.1,0.1-8.2,0-12.4c0-1.2,0-2.1,1.6-1.9
	c1.3,0.2,3-0.5,2.5,1.9C129.2,8.6,129.3,8.9,129.3,9.1z"/>
<path class="st1" d="M10.8,13.4c0,2.4-0.1,4.9,0,7.3c0,1.3-0.4,1.7-1.6,1.5c-0.4-0.1-0.7-0.1-1.1,0c-1.4,0.2-1.8-0.3-1.8-1.7
	c0.1-4.7,0-9.4,0.1-14c0-1.4-0.3-2-1.8-1.8c-0.7,0-1.5,0-2.2,0c-1.9,0-2.8-1.3-2.1-3.1C0.4,1,0.9,1.1,1.3,1.1c4.9,0,9.7,0,14.6,0
	c1.5,0,1,1.1,1,1.9s0.3,1.7-1.1,1.7s-2.5,0-3.7,0c-1.1,0-1.4,0.4-1.4,1.4C10.8,8.5,10.8,10.9,10.8,13.4z"/>
<path class="st5" d="M269.2,8.8c0.7-1.5,2.1-2.4,3.7-2.5c1-0.1,1.6,0.4,1.4,1.4c-0.2,0.8,1,2.4-1.2,2.4c-2.7,0-3.6,1-3.7,3.8
	c0,2.3-0.1,4.6,0,6.9c0,1.2-0.4,1.6-1.5,1.5c-0.5-0.1-1-0.1-1.5,0c-1.2,0.2-1.4-0.4-1.4-1.5c0.1-4,0-8,0-12c0-1.1-0.5-2.4,1.6-2.3
	C268.1,6.5,269.7,6.2,269.2,8.8z"/>
<path class="st6" d="M193,11.7c0,3,0,6,0,9c0,1.1-0.2,1.6-1.4,1.5c-3.5-0.1-2.8,0.3-2.8-2.7c0-5.4,0.1-10.9-0.1-16.3
	c0-1.8,0.6-2.1,2.2-2.1s2.2,0.3,2.1,2C192.9,5.9,193,8.8,193,11.7z"/>
<path class="st7" d="M117.6,14.3c0-2.1,0.1-4.2,0-6.4c0-1.2,0.4-1.7,1.6-1.5c0.5,0.1,1,0.1,1.5,0c0.9-0.1,1.4,0.2,1.3,1.2
	c0,4.4,0,8.9,0,13.3c0,1-0.4,1.3-1.3,1.2c-0.6-0.1-1.1-0.1-1.7,0c-1.2,0.1-1.5-0.4-1.4-1.5C117.7,18.6,117.6,16.5,117.6,14.3z"/>
<path class="st6" d="M200.5,14.5c0,2.1-0.1,4.2,0,6.4c0,1.1-0.4,1.6-1.4,1.3s-2.8,1.2-2.9-1.1c-0.1-4.5,0-9,0-13.5
	c0-0.8,0.3-1.1,1.1-1.1c0.6,0,1.2,0,1.9,0c1-0.1,1.3,0.3,1.3,1.3C200.5,10,200.5,12.2,200.5,14.5z"/>
<path class="st8" d="M119.6,0c1.5,0,2.3,0.7,2.4,2c0,1.2-0.9,2.2-2.1,2.2c-1.2,0-2.2-0.9-2.2-2.1l0,0C117.6,1,118.4,0.1,119.6,0
	C119.6,0,119.6,0,119.6,0z"/>
<path class="st4" d="M198.4,0c1.1-0.1,2,0.8,2.1,1.9c0,0.1,0,0.2,0,0.2c0,1.2-1,2.1-2.2,2.1c-1.2,0-2.1-1-2.1-2.2
	c0-1.1,0.8-2,1.9-2.1C198.3,0,198.4,0,198.4,0z"/>
<path class="st9" d="M47.3,12.2"/>
<path class="st4" d="M36,14.4c0-6,4.3-9.5,9.8-8c4.2,1.1,5.3,5,5.2,8.1c0,1-0.8,0.8-1.4,0.8c-2.7,0-5.4,0.1-8.1,0
	c-1.3,0-1.5,0.4-1.1,1.5c0.5,1.8,2.5,2.9,4.3,2.3c0.6-0.2,1.1-0.5,1.6-1c1.2-1.5,2.6-0.8,3.9-0.8c0.8,0,0.4,0.9,0.2,1.4
	c-1.1,2.4-3.2,3.4-5.7,3.7C39.5,23.1,36,19.8,36,14.4z M43.6,12.7c0.3,0,0.6,0,0.9,0c0.8-0.2,2,0.6,2.2-0.5c0.1-1.2-0.6-2.3-1.8-2.6
	C43.6,9,42,9.4,41.1,10.5c-0.5,0.5-0.9,1.2-0.7,1.8s1.1,0.3,1.7,0.4C42.6,12.8,43.1,12.8,43.6,12.7z"/>
</svg>
